<?xml version="1.0" encoding="utf-8"?>
<!-- Generator: Adobe Illustrator 18.0.0, SVG Export Plug-In . SVG Version: 6.00 Build 0)  -->
<!DOCTYPE svg PUBLIC "-//W3C//DTD SVG 1.1//EN" "http://www.w3.org/Graphics/SVG/1.1/DTD/svg11.dtd">
<svg version="1.1" id="Calque_1" xmlns="http://www.w3.org/2000/svg" xmlns:xlink="http://www.w3.org/1999/xlink" x="0px" y="0px"
	 viewBox="0 0 175 175" enable-background="new 0 0 175 175" xml:space="preserve">
<g enable-background="new    ">
	<path fill="#FFFFFF" d="M33.9,118.3H37c-0.4,3-2.7,5-6,5c-3.6,0-6.4-2.6-6.4-6.1s2.7-6.1,6.4-6.1c3.3,0,5.6,2,6,5h-3.1
		c-0.4-1.5-1.4-2.3-3-2.3c-2,0-3.3,1.4-3.3,3.4c0,2,1.4,3.4,3.3,3.4C32.5,120.7,33.6,119.8,33.9,118.3z"/>
	<path fill="#FFFFFF" d="M47.4,119.1c0,2.6-2,4.4-4.6,4.4c-2.7,0-4.6-1.9-4.6-4.4c0-2.5,2-4.3,4.6-4.3
		C45.5,114.7,47.4,116.5,47.4,119.1z M44.7,119.1c0-1.1-0.8-2-1.9-2c-1.2,0-2,0.9-2,2c0,1.1,0.8,2,2,2
		C43.9,121,44.7,120.2,44.7,119.1z"/>
	<path fill="#FFFFFF" d="M63,118.5v4.7h-2.8v-4.3c0-1.2-0.6-1.8-1.5-1.8c-0.4,0-0.9,0.2-1.3,0.7c0,0.2,0,0.4,0,0.6v4.7h-2.8v-4.2
		c0-1.2-0.6-1.8-1.5-1.8c-0.4,0-0.9,0.2-1.3,0.7v5.3h-2.8v-8.3h2.8v0.5c0.6-0.5,1.2-0.7,2.1-0.7c1.1,0,2,0.4,2.6,1.1
		c0.9-0.8,1.8-1.1,3-1.1C61.5,114.6,63,116.1,63,118.5z"/>
	<path fill="#FFFFFF" d="M64.9,114.1c-0.6-0.3-0.9-0.7-0.9-1.2c0-0.8,0.7-1.5,1.6-1.5c0.9,0,1.6,0.7,1.6,1.5c0,0.4,0,0.6-0.5,1.4
		l-1,1.7H64L64.9,114.1z"/>
</g>
<g enable-background="new    ">
	<path fill="#FFFFFF" d="M77.4,119.8L77.4,119.8l-6.1,0.1c0.2,0.7,0.8,1.3,1.9,1.3c0.6,0,1-0.2,1.3-0.6h2.8c-0.4,1.7-2,2.8-4.2,2.8
		c-2.8,0-4.7-1.8-4.7-4.3c0-2.5,1.8-4.3,4.5-4.3c2.5,0,4.4,1.7,4.4,4.2C77.4,119.1,77.4,119.5,77.4,119.8z M71.3,118.3h3.5
		c-0.1-0.9-0.8-1.4-1.7-1.4C72.1,116.9,71.5,117.4,71.3,118.3z"/>
	<path fill="#FFFFFF" d="M87.7,118.5v4.7h-2.8v-4.3c0-1.2-0.6-1.8-1.5-1.8c-0.5,0-1.1,0.3-1.6,0.8v5.2h-2.8v-8.3h2.8v0.6
		c0.7-0.5,1.5-0.8,2.3-0.8C86.2,114.6,87.7,116.1,87.7,118.5z"/>
</g>
<g enable-background="new    ">
	<path fill="#FFFFFF" d="M93.7,121.2l-0.8,2h-3.1l5.1-11.7h2.8l5,11.7h-3.1l-0.8-2H93.7z M96.2,114.9l-1.5,3.9h3.1L96.2,114.9z"/>
	<path fill="#FFFFFF" d="M112.1,123.2h-2.8v-0.5c-0.7,0.5-1.5,0.8-2.3,0.8c-2.2,0-3.7-1.5-3.7-3.8v-4.7h2.8v4.3
		c0,1.2,0.7,1.8,1.5,1.8c0.5,0,1.1-0.3,1.5-0.8v-5.3h2.8L112.1,123.2L112.1,123.2z"/>
	<path fill="#FFFFFF" d="M123.5,119.1c0,2.5-2,4.3-4.2,4.3c-0.9,0-1.7-0.2-2.3-0.7v0.4h-2.8V111h2.8v4.3c0.7-0.4,1.4-0.7,2.3-0.7
		C121.5,114.8,123.5,116.6,123.5,119.1z M120.7,119.1c0-1.1-0.9-2-2-2c-0.7,0-1.2,0.2-1.8,0.8v2.6c0.5,0.6,1.2,0.8,1.8,0.8
		C119.9,121.1,120.7,120.2,120.7,119.1z"/>
	<path fill="#FFFFFF" d="M130.7,117.4c-1.4,0.1-2.3,0.4-2.9,1v4.7h-2.8v-8.3h2.8v0.9c0.7-0.7,1.7-1,2.9-1V117.4z"/>
	<path fill="#FFFFFF" d="M140.9,123.2h-2.8v-0.4c-0.7,0.4-1.4,0.7-2.3,0.7c-2.3,0-4.2-1.8-4.2-4.3c0-2.5,2-4.3,4.2-4.3
		c0.9,0,1.7,0.2,2.3,0.7V115h2.8V123.2z M138.1,120.3v-2.6c-0.5-0.6-1.2-0.8-1.8-0.8c-1.2,0-2,0.9-2,2c0,1.1,0.9,2,2,2
		C136.9,121.1,137.5,120.9,138.1,120.3z"/>
	<path fill="#FFFFFF" d="M148.6,119.8h2.7c-0.2,2.1-2,3.6-4.4,3.6c-2.7,0-4.7-1.8-4.7-4.3c0-2.5,2-4.3,4.7-4.3
		c2.3,0,4.2,1.5,4.4,3.6h-2.7c-0.1-0.7-0.8-1.2-1.7-1.2c-1.2,0-2,0.9-2,2c0,1.1,0.7,2,2,2C147.8,121,148.5,120.5,148.6,119.8z"/>
</g>
<g>
	<g opacity="0.5">
		<path fill="#E4DF0A" d="M36.5,86c-1.8-0.2-2.7-1.8-1.9-3.4L43.1,63c1.9-3.8,6.2-5.4,11.2-2.7l79.1,37.3c1.4,1,1.3,1.6-0.5,1.4
			L36.5,86z"/>
	</g>
	<g opacity="0.5">
		<path fill="#D3DA43" d="M89.3,53.3c-5.6-5.5-14.1-4.5-19.9,0.5L35.3,81.7c-1.1,1.4-0.5,2.8,1.3,3.1l96.7,14.3
			c1.8,0.2,2.3-0.5,1-1.9L89.3,53.3z"/>
	</g>
	<g opacity="0.5">
		<path fill="#87BE4D" d="M119.1,63.6c-2.7-5.5-9-6.4-15.6-4L36.3,84.2c-1.6,0.8-1.4,1.7,0.4,1.9l98.7,13.4c1.8,0.2,2.7-0.9,1.9-2.5
			L119.1,63.6z"/>
	</g>
	<path fill="#FFFFFF" d="M35.7,85.3c0,0,17.7-7.2,37.6-6.8c12.2,0.2,25,3.6,33.5,7.4c19.5,9,25.4,4,24.9,0.5l-4.7-9
		c0,0,0.5,10-18.2,2.5c-27.4-11-56.5-4.2-73.7,4.1C33.8,84.8,34.6,85.7,35.7,85.3z"/>
</g>
</svg>
