<?xml version="1.0" encoding="utf-8"?>
<!-- Generator: Adobe Illustrator 18.1.0, SVG Export Plug-In . SVG Version: 6.00 Build 0)  -->
<!DOCTYPE svg PUBLIC "-//W3C//DTD SVG 1.1//EN" "http://www.w3.org/Graphics/SVG/1.1/DTD/svg11.dtd">
<svg version="1.1" id="Calque_1" xmlns="http://www.w3.org/2000/svg" xmlns:xlink="http://www.w3.org/1999/xlink" x="0px" y="0px"
	 viewBox="0 0 141.7 141.7" enable-background="new 0 0 141.7 141.7" xml:space="preserve">
<g enable-background="new    ">
	<path fill="#B4471B" d="M27.5,95.8H30c-0.3,2.4-2.2,4-4.9,4c-2.9,0-5.2-2.1-5.2-4.9s2.2-4.9,5.2-4.9c2.7,0,4.5,1.6,4.9,4h-2.5
		c-0.3-1.2-1.1-1.9-2.4-1.9c-1.6,0-2.7,1.1-2.7,2.8s1.1,2.8,2.7,2.8C26.3,97.8,27.2,97,27.5,95.8z"/>
	<path fill="#B4471B" d="M38.4,96.5c0,2.1-1.6,3.6-3.7,3.6c-2.2,0-3.7-1.5-3.7-3.6c0-2,1.6-3.5,3.7-3.5
		C36.8,92.9,38.4,94.4,38.4,96.5z M36.2,96.5c0-0.9-0.6-1.6-1.5-1.6c-1,0-1.6,0.7-1.6,1.6s0.6,1.6,1.6,1.6
		C35.6,98,36.2,97.3,36.2,96.5z"/>
	<path fill="#B4471B" d="M51,96v3.8h-2.3v-3.5c0-1-0.5-1.5-1.2-1.5c-0.3,0-0.7,0.2-1.1,0.6c0,0.2,0,0.3,0,0.5v3.8h-2.3v-3.4
		c0-1-0.5-1.5-1.2-1.5c-0.3,0-0.7,0.2-1.1,0.6v4.3h-2.3V93H42v0.4c0.5-0.4,1-0.6,1.7-0.6c0.9,0,1.6,0.3,2.1,0.9
		c0.7-0.6,1.5-0.9,2.4-0.9C49.8,92.8,51,94,51,96z"/>
	<path fill="#B4471B" d="M52.6,92.4c-0.5-0.2-0.7-0.6-0.7-1c0-0.6,0.6-1.2,1.3-1.2c0.7,0,1.3,0.6,1.3,1.2c0,0.3,0,0.5-0.4,1.1
		l-0.8,1.4h-1.4L52.6,92.4z"/>
</g>
<g enable-background="new    ">
	<path fill="#B4471B" d="M62.7,97L62.7,97l-4.9,0.1c0.2,0.6,0.6,1.1,1.5,1.1c0.5,0,0.8-0.2,1.1-0.5h2.3c-0.3,1.4-1.6,2.3-3.4,2.3
		c-2.3,0-3.8-1.5-3.8-3.5c0-2,1.5-3.5,3.6-3.5c2,0,3.6,1.4,3.6,3.4C62.7,96.5,62.7,96.8,62.7,97z M57.7,95.8h2.8
		c-0.1-0.7-0.6-1.1-1.4-1.1C58.4,94.7,57.9,95.1,57.7,95.8z"/>
	<path fill="#B4471B" d="M71,96v3.8h-2.3v-3.5c0-1-0.5-1.5-1.2-1.5c-0.4,0-0.9,0.2-1.3,0.6v4.2H64V93h2.3v0.5
		c0.6-0.4,1.2-0.6,1.9-0.6C69.8,92.8,71,94,71,96z"/>
</g>
<g enable-background="new    ">
	<path fill="#B4471B" d="M75.9,98.2l-0.6,1.6h-2.5l4.1-9.5h2.3l4,9.5h-2.5L80,98.2H75.9z M77.9,93.1l-1.2,3.2h2.5L77.9,93.1z"/>
	<path fill="#B4471B" d="M90.8,99.8h-2.3v-0.4c-0.6,0.4-1.2,0.6-1.9,0.6c-1.8,0-3-1.2-3-3.1v-3.8h2.3v3.5c0,1,0.6,1.5,1.2,1.5
		c0.4,0,0.9-0.2,1.2-0.6v-4.3h2.3L90.8,99.8L90.8,99.8z"/>
	<path fill="#B4471B" d="M100,96.5c0,2-1.6,3.5-3.4,3.5c-0.7,0-1.4-0.2-1.9-0.6v0.3h-2.3v-9.8h2.3v3.5c0.6-0.3,1.1-0.6,1.9-0.6
		C98.4,93,100,94.4,100,96.5z M97.8,96.5c0-0.9-0.7-1.6-1.6-1.6c-0.6,0-1,0.2-1.5,0.6v2.1c0.4,0.5,1,0.6,1.5,0.6
		C97.1,98.1,97.8,97.3,97.8,96.5z"/>
	<path fill="#B4471B" d="M105.9,95.1c-1.1,0.1-1.9,0.3-2.3,0.8v3.8h-2.3V93h2.3v0.7c0.6-0.6,1.4-0.8,2.3-0.8V95.1z"/>
	<path fill="#B4471B" d="M114.1,99.8h-2.3v-0.3c-0.6,0.3-1.1,0.6-1.9,0.6c-1.9,0-3.4-1.5-3.4-3.5c0-2,1.6-3.5,3.4-3.5
		c0.7,0,1.4,0.2,1.9,0.6v-0.5h2.3V99.8z M111.8,97.4v-2.1c-0.4-0.5-1-0.6-1.5-0.6c-1,0-1.6,0.7-1.6,1.6s0.7,1.6,1.6,1.6
		C110.9,98.1,111.4,97.9,111.8,97.4z"/>
	<path fill="#B4471B" d="M120.3,97h2.2c-0.2,1.7-1.6,2.9-3.6,2.9c-2.2,0-3.8-1.5-3.8-3.5c0-2,1.6-3.5,3.8-3.5c1.9,0,3.4,1.2,3.6,2.9
		h-2.2c-0.1-0.6-0.6-1-1.4-1c-1,0-1.6,0.7-1.6,1.6s0.6,1.6,1.6,1.6C119.7,98,120.3,97.6,120.3,97z"/>
</g>
<g>
	<g opacity="0.5">
		<path fill="#E4DF0A" d="M29.6,69.7c-1.5-0.2-2.2-1.5-1.5-2.8L34.9,51c1.5-3.1,5-4.4,9.1-2.2L108,79c1.1,0.8,1.1,1.3-0.4,1.1
			L29.6,69.7z"/>
	</g>
	<g opacity="0.5">
		<path fill="#D3DA43" d="M72.3,43.2c-4.5-4.5-11.4-3.6-16.1,0.4L28.6,66.2c-0.9,1.1-0.4,2.3,1.1,2.5L108,80.3
			c1.5,0.2,1.9-0.4,0.8-1.5L72.3,43.2z"/>
	</g>
	<g opacity="0.5">
		<path fill="#87BE4D" d="M96.5,51.5c-2.2-4.5-7.3-5.2-12.6-3.2L29.4,68.2c-1.3,0.6-1.1,1.4,0.3,1.5l79.9,10.9
			c1.5,0.2,2.2-0.7,1.5-2L96.5,51.5z"/>
	</g>
	<path fill="#FFFFFF" d="M28.9,69.1c0,0,14.3-5.8,30.5-5.5c9.9,0.2,20.2,2.9,27.1,6c15.8,7.3,20.6,3.2,20.2,0.4l-3.8-7.3
		c0,0,0.4,8.1-14.7,2C66,55.8,42.4,61.3,28.5,68C27.4,68.7,28,69.4,28.9,69.1z"/>
</g>
<line fill="none" stroke="#616160" stroke-width="0.5" stroke-miterlimit="10" x1="0" y1="141.7" x2="141.7" y2="141.7"/>
</svg>
