<?xml version="1.0" encoding="utf-8"?>
<!-- Generator: Adobe Illustrator 18.1.0, SVG Export Plug-In . SVG Version: 6.00 Build 0)  -->
<!DOCTYPE svg PUBLIC "-//W3C//DTD SVG 1.1//EN" "http://www.w3.org/Graphics/SVG/1.1/DTD/svg11.dtd">
<svg version="1.1" id="Calque_1" xmlns="http://www.w3.org/2000/svg" xmlns:xlink="http://www.w3.org/1999/xlink" x="0px" y="0px"
	 viewBox="0 0 175 175" enable-background="new 0 0 175 175" xml:space="preserve">
<path fill="#395A9B" d="M147,174.2H28.8c-17.5,0-28-10.5-28-28V28c0-17.5,10.5-28,28-28h118.5C164.9,0,175,10.5,175,28v118.2
	C175,163.6,164.5,174.2,147,174.2z"/>
<path fill="#FFFFFF" d="M127.3,174.9H96.9v-73.4H81.8V76.2h15.2V61c0-20.6,8.6-32.9,32.9-32.9h20.3v25.3h-12.7
	c-9.5,0-10.1,3.5-10.1,10.1l0,12.7h23l-2.7,25.3h-20.3V174.9z"/>
</svg>
