<?xml version="1.0" encoding="utf-8"?>
<!-- Generator: Adobe Illustrator 15.0.0, SVG Export Plug-In . SVG Version: 6.00 Build 0)  -->
<!DOCTYPE svg PUBLIC "-//W3C//DTD SVG 1.1//EN" "http://www.w3.org/Graphics/SVG/1.1/DTD/svg11.dtd">
<svg version="1.1" id="Layer_1" xmlns="http://www.w3.org/2000/svg" xmlns:xlink="http://www.w3.org/1999/xlink" x="0px" y="0px"
	 width="90px" height="90px" viewBox="0 0 90 90" enable-background="new 0 0 90 90" xml:space="preserve">
<g>
	<defs>
		<rect id="SVGID_1_" x="4.661" y="31.849" width="81.038" height="26.303"/>
	</defs>
	<clipPath id="SVGID_2_">
		<use xlink:href="#SVGID_1_"  overflow="visible"/>
	</clipPath>
	<path clip-path="url(#SVGID_2_)" fill="#FFFFFF" d="M55.658,31.849c-1.019,0-1.846,0.826-1.846,1.849v0.769
		c0,1.025,0.827,1.852,1.846,1.852h9.091v0.767H53.501c-1.018,0-1.849,0.831-1.849,1.849v0.771c0,1.021,0.831,1.85,1.849,1.85
		h11.248v0.77H51.345c-1.021,0-1.849,0.826-1.849,1.846v0.773c0,1.019,0.828,1.847,1.849,1.847h13.404v0.617H53.501
		c-1.018,0-1.849,0.826-1.849,1.848v0.771c0,1.018,0.831,1.848,1.849,1.848h15.956l-2.358,1.193
		c-1.382,0.693-2.056,2.135-1.516,3.209l0.415,0.812c0.544,1.076,2.099,1.387,3.481,0.686l9.145-4.617
		c4.712-2.293,7.074-5.967,7.074-11.299c0-5.527-4.033-10.012-9.012-10.012c-0.192,0-0.383,0.009-0.577,0.023
		c-0.087-0.015-0.175-0.023-0.271-0.023H55.658z"/>
	<path clip-path="url(#SVGID_2_)" fill="#FFFFFF" d="M34.701,31.849c1.02,0,1.847,0.826,1.847,1.849v0.769
		c0,1.025-0.827,1.852-1.847,1.852h-9.09v0.767h11.247c1.018,0,1.849,0.831,1.849,1.849v0.771c0,1.021-0.831,1.85-1.849,1.85H25.611
		v0.77h13.404c1.021,0,1.848,0.826,1.848,1.846v0.773c0,1.019-0.827,1.847-1.848,1.847H25.611v0.617h11.247
		c1.018,0,1.849,0.826,1.849,1.848v0.771c0,1.018-0.831,1.848-1.849,1.848H20.902l2.358,1.193c1.381,0.693,2.057,2.135,1.516,3.209
		l-0.416,0.812c-0.542,1.076-2.099,1.387-3.48,0.686l-9.144-4.617c-4.712-2.293-7.074-5.967-7.074-11.299
		c0-5.527,4.033-10.012,9.012-10.012c0.192,0,0.383,0.009,0.576,0.023c0.087-0.015,0.176-0.023,0.271-0.023H34.701z"/>
</g>
</svg>
