<?xml version="1.0" encoding="utf-8"?>
<!-- Generator: Adobe Illustrator 15.0.0, SVG Export Plug-In . SVG Version: 6.00 Build 0)  -->
<!DOCTYPE svg PUBLIC "-//W3C//DTD SVG 1.1//EN" "http://www.w3.org/Graphics/SVG/1.1/DTD/svg11.dtd">
<svg version="1.1" id="Layer_1" xmlns="http://www.w3.org/2000/svg" xmlns:xlink="http://www.w3.org/1999/xlink" x="0px" y="0px"
	 width="90px" height="90px" viewBox="0 0 90 90" enable-background="new 0 0 90 90" xml:space="preserve">
<path fill="#FFFFFF" d="M85.004,61.372c0.997-3.539,1.493-7.201,1.493-11.136c0-22.95-18.604-39.611-41.557-39.611
	c-22.952,0-41.556,16.661-41.556,39.611c0,6.343,1.42,12.354,3.961,17.73c0,0,3.905,5.283,9.155-0.092
	c2.558-3.573,6-7.625,10.5-4.375c1.285,1.102,3.5,3.25,5.93-2.186c2.387-4.774,8.695-13.564,19.646-7.713
	C59,58,59.921,65.904,65.245,63.884c3.43-1.64,6.505-5.134,13.036,1.652c1.387,0.937,3.843,2.789,5.679-1.021l0.308-0.781
	C84.287,63.684,84.713,62.615,85.004,61.372z"/>
</svg>
