<?xml version="1.0" encoding="utf-8"?>
<!-- Generator: Adobe Illustrator 15.0.0, SVG Export Plug-In . SVG Version: 6.00 Build 0)  -->
<!DOCTYPE svg PUBLIC "-//W3C//DTD SVG 1.1//EN" "http://www.w3.org/Graphics/SVG/1.1/DTD/svg11.dtd">
<svg version="1.1" id="Layer_1" xmlns="http://www.w3.org/2000/svg" xmlns:xlink="http://www.w3.org/1999/xlink" x="0px" y="0px"
	 width="90px" height="90px" viewBox="0 0 90 90" enable-background="new 0 0 90 90" xml:space="preserve">
<path fill="#6F7173" d="M517.241,478.318l12.805,11.161c-4.811,8.725-8.463,18.121-10.793,27.958l-16.962-0.319
	c-0.791-0.014-1.568,0.04-2.321,0.159c-6.239,0.979-11.063,6.32-11.187,12.852l-0.385,20.49
	c-0.137,7.322,5.688,13.369,13.009,13.506l16.991,0.319c1.981,10.074,5.28,19.576,9.691,28.357l-13.193,10.658
	c-5.699,4.6-6.589,12.951-1.986,18.648l12.877,15.942c3.084,3.82,7.859,5.48,12.387,4.769c2.222-0.349,4.386-1.268,6.26-2.784
	l13.215-10.672c7.8,6.273,16.434,11.484,25.661,15.471l-3.259,16.664c-1.411,7.188,3.278,14.151,10.465,15.561l20.11,3.936
	c1.563,0.305,3.12,0.322,4.606,0.091c5.352-0.841,9.854-4.932,10.955-10.558l3.264-16.663c4.942-0.106,9.936-0.538,14.957-1.327
	c5.021-0.789,9.909-1.908,14.646-3.323l8.213,14.862c2.77,5.015,8.314,7.53,13.664,6.69c1.488-0.234,2.961-0.728,4.357-1.498
	l17.935-9.912c6.411-3.544,8.734-11.608,5.192-18.02l-8.21-14.859c7.561-6.627,14.182-14.233,19.682-22.596l15.851,6.107
	c2.248,0.867,4.59,1.08,6.811,0.731c4.527-0.712,8.562-3.752,10.33-8.337l7.367-19.12c2.634-6.837-0.771-14.508-7.604-17.145
	l-15.828-6.1c1.51-9.711,1.736-19.767,0.533-29.962l16.075-5.514c6.926-2.372,10.618-9.915,8.24-16.843l-6.646-19.387
	c-2.12-6.18-8.349-9.781-14.588-8.802c-0.753,0.118-1.509,0.305-2.258,0.561l-16.046,5.503
	c-5.232-8.649-11.594-16.475-18.846-23.303l8.767-14.551c3.782-6.27,1.761-14.42-4.514-18.201l-17.552-10.578
	c-2.779-1.673-5.923-2.209-8.893-1.742c-3.741,0.584-7.203,2.762-9.308,6.256l-8.762,14.536c-9.37-3.206-19.252-5.181-29.413-5.757
	l-2.633-16.767c-1.137-7.235-7.926-12.179-15.158-11.042l-20.245,3.179c-7.236,1.138-12.18,7.924-11.044,15.157l2.636,16.767
	c-9.5,3.664-18.299,8.573-26.234,14.497l-12.795-11.151c-3.075-2.681-7.037-3.689-10.777-3.104c-2.971,0.469-5.8,1.942-7.934,4.388
	l-13.464,15.45C511.146,465.131,511.721,473.509,517.241,478.318z M614.507,462.144c44.568-7,86.523,23.565,93.522,68.136
	c7,44.57-23.562,86.522-68.136,93.522c-44.567,7-86.521-23.565-93.521-68.135S569.937,469.144,614.507,462.144z"/>
<path fill="#FFFFFF" d="M13.459,25.812l3.813,3.324c-1.432,2.598-2.52,5.396-3.214,8.325l-5.051-0.095
	c-0.235-0.004-0.467,0.012-0.691,0.047c-1.858,0.292-3.294,1.882-3.331,3.827l-0.114,6.101c-0.041,2.181,1.693,3.981,3.874,4.022
	l5.06,0.095c0.59,3,1.572,5.829,2.886,8.444l-3.929,3.174c-1.697,1.369-1.962,3.856-0.591,5.553l3.834,4.747
	c0.918,1.138,2.34,1.632,3.688,1.42c0.662-0.104,1.306-0.377,1.864-0.829l3.935-3.178c2.322,1.868,4.894,3.42,7.641,4.607
	l-0.97,4.962c-0.42,2.141,0.976,4.214,3.116,4.634l5.988,1.172c0.465,0.091,0.929,0.096,1.372,0.026
	c1.594-0.25,2.935-1.468,3.262-3.144l0.973-4.962c1.472-0.031,2.958-0.16,4.453-0.396c1.495-0.234,2.951-0.567,4.361-0.989
	l2.446,4.426c0.824,1.493,2.476,2.242,4.068,1.992c0.443-0.069,0.882-0.217,1.298-0.446l5.341-2.951
	c1.909-1.056,2.601-3.457,1.546-5.366l-2.445-4.425c2.252-1.973,4.224-4.238,5.861-6.729l4.72,1.819
	c0.67,0.258,1.367,0.321,2.028,0.218c1.348-0.212,2.55-1.117,3.076-2.482l2.193-5.694c0.784-2.035-0.229-4.319-2.265-5.104
	l-4.713-1.816c0.449-2.892,0.517-5.887,0.159-8.922l4.786-1.642c2.062-0.707,3.162-2.953,2.454-5.016l-1.979-5.773
	c-0.632-1.84-2.486-2.913-4.345-2.621c-0.224,0.036-0.449,0.091-0.672,0.167l-4.778,1.639c-1.558-2.576-3.452-4.906-5.611-6.939
	l2.61-4.333c1.126-1.867,0.524-4.294-1.345-5.419l-5.227-3.15c-0.827-0.498-1.764-0.658-2.647-0.519
	c-1.114,0.174-2.145,0.822-2.771,1.863l-2.609,4.329c-2.79-0.955-5.732-1.542-8.759-1.714l-0.783-4.993
	c-0.339-2.154-2.36-3.626-4.514-3.288l-6.028,0.947c-2.155,0.338-3.627,2.359-3.289,4.514l0.785,4.992
	c-2.829,1.091-5.449,2.553-7.812,4.317l-3.81-3.32c-0.916-0.798-2.096-1.099-3.209-0.924c-0.884,0.14-1.727,0.579-2.362,1.307
	l-4.009,4.601C11.644,21.886,11.815,24.38,13.459,25.812z M42.423,20.996c13.271-2.084,25.765,7.017,27.849,20.289
	c2.084,13.272-7.017,25.765-20.289,27.849c-13.271,2.085-25.764-7.017-27.849-20.289C20.049,35.573,29.15,23.081,42.423,20.996z"/>
</svg>
