<?xml version="1.0" encoding="utf-8"?>
<!-- Generator: Adobe Illustrator 18.1.0, SVG Export Plug-In . SVG Version: 6.00 Build 0)  -->
<!DOCTYPE svg PUBLIC "-//W3C//DTD SVG 1.1//EN" "http://www.w3.org/Graphics/SVG/1.1/DTD/svg11.dtd">
<svg version="1.1" id="Calque_1" xmlns="http://www.w3.org/2000/svg" xmlns:xlink="http://www.w3.org/1999/xlink" x="0px" y="0px"
	 viewBox="0 0 141.7 141.7" enable-background="new 0 0 141.7 141.7" xml:space="preserve">
<path fill="#87BE4D" d="M118.7,141.1H23c-14.2,0-22.7-8.5-22.7-22.7V22.7C0.3,8.5,8.8,0,23,0h96c14.3,0,22.4,8.5,22.4,22.7v95.7
	C141.4,132.5,132.9,141.1,118.7,141.1z"/>
<path fill="#FFFFFF" d="M91.5,108.3h-5.9c-3.3,0-5.9-2.6-5.9-5.9v-8.8H62v8.8c0,3.3-2.6,5.9-5.9,5.9h-5.9c-1.6,0-3,1.3-3,3
	c0,1.6,1.3,2.9,3,2.9h41.3c1.6,0,2.9-1.3,2.9-2.9C94.5,109.6,93.2,108.3,91.5,108.3z M112.9,26.9h-84c-2.8,0-5.2,2.5-5.2,5.5v56.8
	c0,3.1,2.3,5.5,5.2,5.5h84c2.8,0,5.2-2.5,5.2-5.5V32.4C118.1,29.3,115.7,26.9,112.9,26.9z M110.2,86.8H31.6v-52h78.6V86.8z"/>
</svg>
